<?xml version="1.0" encoding="UTF-8"?>
<svg id="Layer_1" data-name="Layer 1" xmlns="http://www.w3.org/2000/svg" viewBox="0 0 1920 1080">
  <defs>
    <style>
      .cls-1 {
        fill: none;
        stroke: #061e28;
        stroke-miterlimit: 10;
        stroke-width: 2px;
      }
    </style>
  </defs>
  <g>
    <path class="cls-1" d="m769.09,925.88c-1.33.03-2.41-1.09-2.32-2.41l1.04-16.32,1.29-36.96c.06-2.07.1-4.16.1-6.26v-.93c-.03-1.28,1-2.32,2.28-2.3l2.48.02,2.2-.02c1.31-.01,2.36,1.08,2.29,2.39l-.81,15.04-1.4,38.97-.11,6.56c-.02,1.26-1.06,2.26-2.32,2.23l-2.36-.05c-.29,0-1.08.01-2.35.04Zm6.53-33.09c-.69-.86-.66-2.1.08-2.93l10.79-12.14,10.2-11.9c.64-.79,1.79-2.21,3.42-4.28.44-.55,1.11-.88,1.81-.87l4.35.04h.03c1.98-.02,3.03,2.33,1.7,3.8l-19.86,21.91-2.8,3.23c-.71.82-.74,2.03-.08,2.88l1.49,1.92c.58.73,4.59,5.55,12.03,14.45l11.15,13.21c1.25,1.48.18,3.75-1.77,3.73-.19,0-.36,0-.5,0-1.2,0-2.76.02-4.69.07-.74.02-1.45-.33-1.89-.92l-4.04-5.46-21.41-26.74Z"/>
    <path class="cls-1" d="m826.18,882.38c.1-.68.2-1.42.3-2.24.09-.69.59-1.27,1.27-1.44,3.35-.83,6.3-1.42,8.84-1.75,2.82-.37,5.57-.55,8.25-.55,2.87,0,5.55.26,8.06.79,2.5.53,4.58,1.38,6.24,2.56,1.66,1.18,2.76,2.53,3.3,4.07.54,1.53.81,3.17.81,4.92,0,2.2-.17,5.89-.5,11.07-.33,5.18-.59,9.97-.76,14.37-.15,3.68-.23,7.03-.26,10.05,0,.94-.8,1.69-1.74,1.66s-1.79-.04-2.48-.04c-.65,0-1.48.01-2.48.04s-1.8-.81-1.73-1.81l.87-11.19.73-15.44c-1.12.86-1.96,1.47-2.51,1.82-.56.35-1.19.68-1.89.98-.7.3-1.48.59-2.32.86s-2.49.74-4.93,1.41c-2.44.67-4.17,1.18-5.19,1.53-2.2.7-3.94,1.4-5.22,2.1-1.28.7-2.34,1.47-3.21,2.3-.86.83-1.47,1.66-1.82,2.49-.42,1.02-.62,2.09-.62,3.2,0,1.72.51,3.22,1.53,4.49,1.02,1.28,2.3,2.16,3.85,2.65,1.55.49,3.4.74,5.57.74,1.34,0,2.74-.09,4.21-.28.83-.11,1.82-.31,2.97-.6,1.24-.32,2.38.79,2.06,2.03-.14.53-.28,1.11-.43,1.74s-.68,1.17-1.34,1.28c-1.84.33-3.37.54-4.6.63-1.47.11-2.85.17-4.16.17-4.37,0-7.78-.51-10.23-1.53s-4.29-2.57-5.5-4.66c-1.21-2.09-1.82-4.36-1.82-6.81,0-1.43.22-2.76.65-3.97.43-1.21,1.01-2.31,1.75-3.3s1.78-1.98,3.13-2.96c1.35-.99,2.77-1.8,4.26-2.44,1.48-.64,3.21-1.27,5.19-1.89,1.98-.62,5.15-1.46,9.52-2.51,1.4-.32,2.6-.65,3.59-.98s1.86-.66,2.63-.98,1.43-.69,2.01-1.12,1.1-.96,1.58-1.58c.48-.62.83-1.25,1.05-1.89.22-.64.33-1.28.33-1.91,0-1.56-.51-2.9-1.53-4.02-1.02-1.12-2.35-1.9-3.99-2.34-1.64-.45-3.58-.67-5.81-.67-2.07,0-4.2.17-6.38.5-2.19.33-4.07.73-5.64,1.19-.93.27-2,.63-3.21,1.06s-2.4-.56-2.22-1.81Z"/>
    <path class="cls-1" d="m877.47,925.86c-1.58.03-2.85-1.3-2.76-2.88,1.02-17.01,1.54-30.71,1.54-41.08l-.02-1.62c-.02-1.51,1.23-2.75,2.74-2.73.45,0,.87,0,1.25,0s.79,0,1.21,0c1.55-.01,2.79,1.29,2.71,2.83l-.24,5.06c1.18-1.98,2.22-3.47,3.13-4.47.91-1,1.94-1.83,3.08-2.49,1.15-.65,2.45-1.16,3.9-1.53,1.45-.37,2.96-.55,4.52-.55.55,0,1.1.03,1.65.08,1.32.13,2.33,1.25,2.37,2.58.02.46.04.92.06,1.4.08,1.68-1.36,3.04-3.02,2.83-.72-.09-1.41-.14-2.07-.14-1.88,0-3.57.31-5.07.93-1.5.62-2.84,1.56-4.04,2.82-1.19,1.26-2.17,2.77-2.94,4.52-.64,1.4-1.12,3.22-1.46,5.45-.33,2.23-.6,6.3-.79,12.19-.13,4.3-.19,8.86-.19,13.67v.42c0,1.51-1.26,2.73-2.77,2.7-.52,0-.98-.02-1.39-.02-.39,0-.86,0-1.41.02Z"/>
    <path class="cls-1" d="m954.14,923.07c0,1.62-1.33,2.91-2.95,2.88-.39,0-.72-.01-.97-.01h-1.11c-1.66,0-2.97-1.39-2.88-3.04l.4-7.29c-1.02,1.79-1.9,3.16-2.63,4.14-.73.97-1.6,1.89-2.61,2.75-1,.86-2.17,1.64-3.49,2.32-1.32.69-2.8,1.22-4.42,1.6-1.63.38-3.35.57-5.16.57-3.09,0-5.98-.56-8.68-1.67s-4.98-2.71-6.86-4.78c-1.88-2.07-3.24-4.49-4.06-7.24-.83-2.76-1.24-5.63-1.24-8.63,0-4.02.78-7.97,2.34-11.86s3.77-7.1,6.62-9.64,6.08-4.29,9.68-5.28,7.43-1.48,11.48-1.48c2.01,0,4.3.16,6.85.49,1.69.22,3.21-1.05,3.27-2.75.07-2.08.11-3.9.11-5.44,0-1.92,0-3.62-.02-5.11-.01-1.61,1.3-2.91,2.91-2.89l1.41.02c.38,0,.81,0,1.29,0,1.66-.01,2.99,1.37,2.91,3.03l-1.23,23.94-.95,30.94v4.45Zm-6.96-37.41c.04-1.36-.88-2.58-2.21-2.89-.97-.23-1.85-.39-2.63-.49-1.35-.16-2.67-.24-3.94-.24-3.06,0-5.98.44-8.77,1.32-2.79.88-5.24,2.32-7.36,4.33-2.12,2.01-3.75,4.56-4.9,7.65-1.15,3.09-1.72,6.12-1.72,9.08s.54,5.73,1.63,8.3c1.08,2.57,2.77,4.58,5.04,6.02,2.28,1.45,4.93,2.18,7.96,2.18,1.82,0,3.47-.25,4.97-.74,1.5-.49,2.86-1.22,4.09-2.18,1.23-.96,2.38-2.25,3.47-3.87s1.95-3.51,2.58-5.64c.54-1.88.94-4.41,1.19-7.6.13-1.56.27-4.57.43-9.04l.17-6.19Z"/>
    <path class="cls-1" d="m991.1,876.4c3.35,0,6.53.48,9.56,1.43,3.03.96,5.65,2.47,7.87,4.54s3.9,4.69,5.04,7.84c1.15,3.16,1.72,6.49,1.72,9.99,0,3.79-.62,7.43-1.84,10.9-1.23,3.47-2.95,6.42-5.16,8.85-2.22,2.42-4.93,4.2-8.13,5.33-3.2,1.13-6.64,1.7-10.3,1.7-3.41,0-6.63-.51-9.66-1.53-3.03-1.02-5.65-2.61-7.87-4.78-2.22-2.17-3.9-4.82-5.04-7.96-1.15-3.14-1.72-6.43-1.72-9.87,0-5.2,1.05-9.88,3.16-14.03,2.1-4.16,5.2-7.27,9.28-9.32s8.45-3.08,13.1-3.08Zm-.22,6.07c-3.25,0-6.23.81-8.95,2.44-2.72,1.63-4.74,4.07-6.04,7.34-1.31,3.27-1.96,6.83-1.96,10.69,0,3.38.54,6.42,1.62,9.11,1.08,2.69,2.86,4.87,5.35,6.53,2.48,1.66,5.47,2.49,8.98,2.49,2.39,0,4.65-.41,6.78-1.22,2.13-.81,4-2.16,5.59-4.04,1.59-1.88,2.77-4.18,3.53-6.91.76-2.73,1.15-5.59,1.15-8.58,0-2.8-.38-5.43-1.15-7.89-.77-2.46-1.94-4.42-3.51-5.91-1.58-1.48-3.36-2.53-5.35-3.13-1.99-.61-4-.91-6.04-.91Z"/>
    <path class="cls-1" d="m1070.2,922.21c-.03,2.03-1.71,3.64-3.73,3.63-.11,0-.23,0-.34,0-.04,0-.08,0-.13,0-2.1,0-3.8-1.69-3.75-3.79l.14-5.34c-.77,1.43-1.43,2.54-1.98,3.32-.56.78-1.25,1.55-2.08,2.3-.83.75-1.68,1.38-2.56,1.89-.88.51-1.9.96-3.08,1.36-1.18.4-2.56.73-4.13,1s-3.26.41-5.05.41c-3.89,0-7.21-.59-9.97-1.77-2.76-1.18-4.84-2.85-6.26-5.02-1.42-2.17-2.13-5.13-2.13-8.89,0-.57.03-1.55.09-2.92.06-1.37.16-3.15.28-5.35l.8-15.92.14-5.12c0-.26.01-.54.02-.83.04-2.03,1.71-3.65,3.74-3.62h.7s.06,0,.1,0c2.15,0,3.87,1.81,3.71,3.96-.34,4.46-.66,9.23-.97,14.3-.4,6.63-.61,10.87-.61,12.72,0,2.81.45,5.05,1.36,6.72.91,1.67,2.42,2.96,4.54,3.87,2.12.91,4.52,1.36,7.2,1.36,2.36,0,4.62-.41,6.79-1.24,1.85-.73,3.41-1.72,4.69-2.96,1.37-1.37,2.52-3.14,3.44-5.31.67-1.59,1.18-3.65,1.53-6.17.22-1.82.45-5.09.67-9.8.2-4.55.35-9.16.45-13.83.04-2.03,1.7-3.65,3.73-3.63h.79s.02,0,.03,0c2.15,0,3.85,1.79,3.7,3.94-.38,5.53-.81,12.92-1.28,22.17-.3,5.47-.5,11.66-.62,18.56Z"/>
    <path class="cls-1" d="m1083.04,921.71c1.18-16.1,1.85-29.57,2.02-40.4.03-2.12,1.77-3.8,3.89-3.77h.46s.02,0,.03,0c2.23,0,4.01,1.88,3.86,4.11l-.36,5.41c.8-1.34,1.44-2.37,1.91-3.08.48-.72,1.12-1.47,1.91-2.27.8-.8,1.74-1.54,2.82-2.22,1.08-.68,2.36-1.26,3.83-1.72,1.47-.46,2.96-.81,4.47-1.03,1.51-.22,3.02-.33,4.52-.33,2.74,0,5.39.33,7.94,1s4.65,1.76,6.29,3.28c1.64,1.51,2.74,3.21,3.3,5.09.56,1.88.84,3.91.84,6.07,0,.42-.02,1.21-.05,2.39-.03,1.18-.1,2.73-.19,4.64l-.95,20.04c-.03.94-.06,1.99-.08,3.15-.04,2.12-1.79,3.79-3.9,3.78-.08,0-.15,0-.23,0s-.15,0-.22,0c-2.24,0-4.02-1.87-3.86-4.1.17-2.37.3-4.68.4-6.94l.63-11.14c.19-3.82.29-6.71.29-8.65,0-2.8-.48-5.05-1.44-6.72s-2.49-2.96-4.6-3.87c-2.11-.91-4.47-1.36-7.08-1.36-3.7,0-6.88.88-9.53,2.63-2.43,1.63-4.31,3.94-5.65,6.93-.93,2.14-1.58,5.29-1.96,9.47-.43,4.39-.74,11.05-.94,19.99-.05,2.1-1.78,3.79-3.89,3.78-.12,0-.23,0-.34,0-.09,0-.18,0-.27,0-2.25.01-4.05-1.89-3.88-4.13Z"/>
    <path class="cls-1" d="m1145.92,925.85c-1.95.03-3.51-1.61-3.37-3.56l.58-8.41.93-20.56.31-12.55c.04-1.82,1.54-3.27,3.36-3.25h1.12s.7,0,.7,0c1.94-.02,3.49,1.62,3.36,3.56-.26,3.87-.5,7.88-.72,12.01-.29,5.43-.53,11.37-.71,17.81-.13,4.62-.21,8.51-.25,11.65-.02,1.84-1.54,3.31-3.39,3.28-.37,0-.68,0-.94,0s-.57,0-.97,0Zm-1.33-62.24h0c.04-1.82,1.55-3.26,3.37-3.24.46,0,.9,0,1.31,0,.37,0,.74,0,1.1,0,1.89-.02,3.4,1.56,3.33,3.45h0c-.07,1.8-1.57,3.22-3.37,3.21-.42,0-.82,0-1.2,0s-.75,0-1.16,0c-1.89.01-3.42-1.53-3.38-3.42Z"/>
  </g>
  <g>
    <path class="cls-1" d="m784.85,190.25c56.24-45.35,130.12-69.66,202.58-67.57,25.28.71,51.08,2.91,75.7,9.6,31.2,8.98,60.44,25.12,84.97,46.22,12.22,10.43,23.24,22.34,32.38,35.54,0,0-2.05,2.29-2.05,2.29-8.06-4.04-15.85-8.3-23.76-12.4-30.46-15.78-62.11-28.88-94.65-39.07-24.14-7.9-48.53-15.16-74.03-17.63-68.97-6.89-139.6,9.34-199.36,45.53,0,0-1.76-2.52-1.76-2.52h0Z"/>
    <path class="cls-1" d="m752.34,733.89c72.76,54.54,168.26,78.26,256.92,57.52,37.65-7.37,74.62-17.74,110.41-32.09,8.28-3.29,16.45-6.75,24.88-9.97,0,0,1.81,2.49,1.81,2.49-11.87,14.02-26.12,25.95-41.45,36.06-25.16,16.38-53.76,28.26-83.43,33.64-25.16,4.22-51.05,3.84-76.28,2.04-18.07-1.46-36.78-4.37-54.32-8.77-52.5-13.32-102.21-40.89-140.55-78.58,0,0,2-2.33,2-2.33h0Z"/>
    <path class="cls-1" d="m663.58,600.5c-26.84-49.13-40.07-107.4-35.89-163.54,2.38-28.57,6.09-57.42,18.07-83.72,11.84-26.01,27.96-51.21,50.92-68.76,0,0,2.49,1.8,2.49,1.8-2.25,7.57-4.88,14.98-7.35,22.42-9.22,27.78-17.11,55.93-26.1,83.68-5.26,15.63-10.81,31.48-13.63,47.67-1.12,6.38-2.08,12.98-2.6,19.47-1.23,13.2-1.65,26.77-1.29,40.02.8,33.93,7.14,67.16,18.19,99.72,0,0-2.81,1.24-2.81,1.24h0Z"/>
    <path class="cls-1" d="m1233.26,642.86c22.23-42.32,35.23-88.1,38.09-135.5.48-6.49.54-13.16.41-19.64-.31-16.44-3.36-32.95-6.17-49.2-4.56-27.95-7.82-56.13-12.61-84.14-1.29-8.61-3.05-17.14-4.2-25.83,0,0,2.74-1.4,2.74-1.4,10.09,10.35,18.07,22.66,24.53,35.54,11.13,22.51,18.72,46.85,20.88,71.89,1.5,17.9.61,35.87-.57,53.82-1.61,22.27-6.43,44.34-13.16,65.58-10.58,32.55-26.68,63.73-47.34,90.54,0,0-2.59-1.66-2.59-1.66h0Z"/>
    <path class="cls-1" d="m683.07,676.34l41.72-435.56c1.49-15.52,14.96-27.09,30.52-26.23,30.88,1.71,71.52,3.74,102.84,5.14,16.94.76,29.63,15.82,27.5,32.64-7.14,56.39-12.53,107.04-16.18,151.97l197.38,9.82c1.68-15.26,8.58-106.45,11.8-154.89,1.06-15.91,14.75-27.99,30.67-27.06l56.79,3.31c6.42.32,21.35.94,44.77,1.85,16.84.66,29.61,15.46,27.74,32.22-13.53,121.58-32.9,335.59-39.5,434.35-1.06,15.85-14.63,27.92-30.49,27.08-27.74-1.46-70.25-3.66-103.26-5.22-17.06-.8-29.73-16.07-27.39-32.98,6.89-49.81,12.79-106.05,17.7-168.71l-197.54-9.83-13.82,172.41c-1.26,15.68-14.76,27.51-30.47,26.68-27.86-1.47-70.88-3.7-103.24-5.22-16.57-.78-29.12-15.27-27.53-31.78Z"/>
  </g>
</svg>